<svg width="648" height="427" viewBox="0 0 648 427" fill="none" xmlns="http://www.w3.org/2000/svg">
<g clip-path="url(#clip0_1495_2206)">
<rect width="648" height="427" fill="white"/>
<rect width="648" height="427" fill="white"/>
<rect width="648" height="427" fill="#FFE307"/>
<path d="M95.483 42.7V105H78.217L54.543 76.698V105H34.073V42.7H51.339L75.013 71.002V42.7H95.483ZM130.701 105.89C125.302 105.89 120.437 104.822 116.105 102.686C111.833 100.491 108.481 97.4943 106.048 93.697C103.616 89.8403 102.399 85.4793 102.399 80.614C102.399 75.7487 103.616 71.4173 106.048 67.62C108.481 63.7633 111.833 60.767 116.105 58.631C120.437 56.495 125.302 55.427 130.701 55.427C136.16 55.427 141.025 56.495 145.297 58.631C149.629 60.767 152.981 63.7633 155.354 67.62C157.787 71.4173 159.003 75.7487 159.003 80.614C159.003 85.4793 157.787 89.8403 155.354 93.697C152.981 97.4943 149.629 100.491 145.297 102.686C141.025 104.822 136.16 105.89 130.701 105.89ZM130.701 90.226C133.015 90.226 134.914 89.3953 136.397 87.734C137.881 86.0133 138.622 83.64 138.622 80.614C138.622 77.588 137.881 75.2443 136.397 73.583C134.914 71.9217 133.015 71.091 130.701 71.091C128.387 71.091 126.489 71.9217 125.005 73.583C123.522 75.2443 122.78 77.588 122.78 80.614C122.78 83.64 123.522 86.0133 125.005 87.734C126.489 89.3953 128.387 90.226 130.701 90.226ZM219.144 38.962V105H200.009V100.995C197.101 104.258 192.651 105.89 186.659 105.89C182.387 105.89 178.441 104.881 174.822 102.864C171.262 100.787 168.414 97.8207 166.278 93.964C164.201 90.1073 163.163 85.6573 163.163 80.614C163.163 75.5707 164.201 71.1503 166.278 67.353C168.414 63.4963 171.262 60.5593 174.822 58.542C178.441 56.4653 182.387 55.427 186.659 55.427C192.058 55.427 196.182 56.8213 199.03 59.61V38.962H219.144ZM191.465 90.226C193.779 90.226 195.677 89.3953 197.161 87.734C198.644 86.0133 199.386 83.64 199.386 80.614C199.386 77.588 198.644 75.2443 197.161 73.583C195.677 71.9217 193.779 71.091 191.465 71.091C189.151 71.091 187.252 71.9217 185.769 73.583C184.285 75.2443 183.544 77.588 183.544 80.614C183.544 83.64 184.285 86.0133 185.769 87.734C187.252 89.3953 189.151 90.226 191.465 90.226ZM279.849 80.614C279.849 80.9107 279.76 82.483 279.582 85.331H245.762C246.474 87.1703 247.66 88.5943 249.322 89.603C250.983 90.5523 253.06 91.027 255.552 91.027C257.688 91.027 259.468 90.76 260.892 90.226C262.375 89.692 263.977 88.7723 265.698 87.467L276.2 98.058C271.453 103.279 264.363 105.89 254.929 105.89C249.055 105.89 243.893 104.822 239.443 102.686C234.993 100.491 231.551 97.4647 229.119 93.608C226.686 89.7513 225.47 85.42 225.47 80.614C225.47 75.7487 226.656 71.4173 229.03 67.62C231.462 63.7633 234.755 60.767 238.909 58.631C243.121 56.495 247.838 55.427 253.06 55.427C257.984 55.427 262.464 56.406 266.499 58.364C270.593 60.322 273.826 63.1997 276.2 66.997C278.632 70.7943 279.849 75.3333 279.849 80.614ZM253.238 69.133C251.161 69.133 249.44 69.6967 248.076 70.824C246.711 71.9513 245.821 73.5533 245.406 75.63H261.07C260.654 73.6127 259.764 72.0403 258.4 70.913C257.035 69.7263 255.314 69.133 253.238 69.133ZM329.255 106.424C324.389 106.424 319.969 105.653 315.994 104.11C312.078 102.508 308.844 100.194 306.293 97.168L317.596 83.818C319.257 85.8947 320.889 87.4373 322.491 88.446C324.093 89.4547 325.754 89.959 327.475 89.959C329.67 89.959 331.331 89.3063 332.459 88.001C333.645 86.6957 334.239 84.7673 334.239 82.216V58.542H313.057V42.7H354.976V80.97C354.976 89.4547 352.78 95.833 348.39 100.105C344.058 104.318 337.68 106.424 329.255 106.424ZM387.836 106.424C382.674 106.424 377.631 105.86 372.706 104.733C367.841 103.546 363.836 101.974 360.691 100.016L367.455 84.708C370.422 86.4287 373.745 87.823 377.423 88.891C381.102 89.8997 384.632 90.404 388.014 90.404C390.922 90.404 392.998 90.137 394.244 89.603C395.49 89.0097 396.113 88.1493 396.113 87.022C396.113 85.7167 395.283 84.7377 393.621 84.085C392.019 83.4323 389.349 82.7203 385.611 81.949C380.805 80.9403 376.8 79.8723 373.596 78.745C370.392 77.5583 367.604 75.6597 365.23 73.049C362.857 70.379 361.67 66.7893 361.67 62.28C361.67 58.364 362.768 54.804 364.963 51.6C367.159 48.396 370.422 45.8743 374.753 44.035C379.144 42.1957 384.454 41.276 390.684 41.276C394.956 41.276 399.139 41.7507 403.233 42.7C407.387 43.59 411.036 44.925 414.18 46.705L407.861 61.924C401.75 58.8387 395.965 57.296 390.506 57.296C385.107 57.296 382.407 58.6013 382.407 61.212C382.407 62.458 383.208 63.4073 384.81 64.06C386.412 64.6533 389.053 65.306 392.731 66.018C397.478 66.908 401.483 67.9463 404.746 69.133C408.01 70.2603 410.828 72.1293 413.201 74.74C415.634 77.3507 416.85 80.9107 416.85 85.42C416.85 89.336 415.753 92.896 413.557 96.1C411.362 99.2447 408.069 101.766 403.678 103.665C399.347 105.504 394.066 106.424 387.836 106.424Z" fill="#211F1D"/>
<path d="M721.283 297.534H162.648C161.213 297.534 160.137 296.458 160.137 295.023V288.088C160.137 286.653 161.213 285.577 162.648 285.577H721.283C722.717 285.577 723.794 286.653 723.794 288.088V295.023C723.794 296.458 722.717 297.534 721.283 297.534Z" fill="#211F1D"/>
<path d="M269.305 297.533H256.511V447.053L269.305 446.016V297.533Z" fill="#211F1D"/>
<path d="M619.288 297.533H606.494L606.096 480.029L615.425 483.125L619.288 297.533Z" fill="#211F1D"/>
<path d="M520.246 265.966H342.325C340.172 265.966 338.379 264.172 338.379 262.02V158.83C338.379 156.678 340.172 154.884 342.325 154.884H520.366C522.518 154.884 524.312 156.678 524.312 158.83V262.02C524.312 264.172 522.518 265.966 520.246 265.966Z" fill="#FAFAFA"/>
<path d="M452.334 280.435C451.617 278.641 451.378 276.728 451.378 274.815V265.967H431.409H430.453H412.517V274.815C412.517 276.728 412.278 278.641 411.561 280.435C410.604 282.946 408.81 285.696 405.582 285.696H430.453H431.409H458.313C455.084 285.576 453.291 282.826 452.334 280.435Z" fill="#9B9B9B"/>
<path d="M520.246 248.27H342.325C340.172 248.27 338.379 246.477 338.379 244.325V141.135C338.379 138.983 340.172 137.189 342.325 137.189H520.366C522.518 137.189 524.312 138.983 524.312 141.135V244.205C524.312 246.477 522.518 248.27 520.246 248.27Z" fill="black"/>
<path d="M517.378 143.166H345.555V240.855H517.378V143.166Z" fill="#FAFAFA"/>
<path d="M353.842 222.802C353.962 222.921 354.201 222.802 354.32 222.682L357.549 219.454L359.94 224.117C360.06 224.237 360.179 224.356 360.299 224.356C360.419 224.356 360.419 224.356 360.538 224.356L362.451 223.28C362.571 223.28 362.69 223.161 362.69 223.041C362.69 222.921 362.69 222.802 362.69 222.682L360.419 218.378H364.723C364.962 218.378 365.082 218.258 365.201 218.019C365.321 217.78 365.201 217.66 365.082 217.541L354.201 207.616C354.081 207.497 353.842 207.497 353.723 207.497C353.603 207.616 353.483 207.736 353.483 207.975V222.443C353.483 222.563 353.603 222.682 353.842 222.802Z" fill="black"/>
<path d="M465.119 280.317L366.832 286.654C358.342 287.252 351.049 280.795 350.57 272.306C349.973 263.816 356.429 256.522 364.919 256.044L463.206 249.707C468.348 249.348 472.772 253.294 473.13 258.435L473.848 270.392C474.207 275.534 470.38 279.958 465.119 280.317Z" fill="#FBC39D"/>
<path d="M402.465 221.965L353.8 256.162C347.343 260.706 345.669 269.554 349.973 276.131C353.202 281.153 359.3 283.664 365.159 282.468C386.562 278.163 435.825 268.12 435.347 266.446C434.988 265.13 429.488 245.64 425.064 229.976C422.194 220.291 410.715 216.106 402.465 221.965Z" fill="#1487E3"/>
<path d="M435.469 280.317L533.756 286.654C542.245 287.252 549.539 280.795 550.017 272.306C550.615 263.816 544.158 256.522 535.669 256.044L437.382 249.707C432.24 249.348 427.816 253.294 427.457 258.435L426.74 270.392C426.381 275.534 430.327 279.958 435.469 280.317Z" fill="#FBC39D"/>
<path d="M498.243 221.965L546.909 256.162C553.365 260.706 555.039 269.554 550.735 276.131C547.507 281.153 541.408 283.664 535.549 282.468C514.146 278.163 464.883 268.12 465.361 266.446C465.72 265.13 471.22 245.64 475.644 229.976C478.395 220.291 489.873 216.106 498.243 221.965Z" fill="#1487E3"/>
<path d="M412.271 159.192C407.01 159.192 402.706 163.616 402.706 169.117C402.706 174.617 407.01 179.041 412.271 179.041C417.533 179.041 421.837 174.617 421.837 169.117C421.718 163.616 417.533 159.192 412.271 159.192Z" fill="#F9AC7F"/>
<path d="M484.253 159.192C478.992 159.192 474.688 163.616 474.688 169.117C474.688 174.617 478.992 179.041 484.253 179.041C489.514 179.041 493.819 174.617 493.819 169.117C493.699 163.616 489.514 159.192 484.253 159.192Z" fill="#F9AC7F"/>
<path d="M445.275 222.086C446.232 222.205 447.188 222.325 448.265 222.325C451.254 222.325 454.243 221.966 457.113 221.249C457.113 221.249 457.113 221.249 457.113 221.129C472.657 217.064 484.255 202.357 484.255 184.899V141.136C484.255 120.451 468.113 123.799 448.384 123.799C428.535 123.799 412.513 120.57 412.513 141.136V184.899C412.274 204.509 426.742 220.532 445.275 222.086Z" fill="#FBC39D"/>
<path d="M476.84 170.55V182.388H464.046C464.046 182.388 460.937 173.898 448.143 173.898C435.349 173.898 432.24 182.388 432.24 182.388H419.446V170.55C419.446 165.887 415.141 164.332 412.152 163.854V184.899C412.152 204.508 426.62 220.531 445.154 222.085L445.034 222.205C445.991 222.324 447.067 222.324 448.023 222.324C448.98 222.324 450.056 222.324 451.013 222.205L450.893 222.085C469.307 220.531 483.895 204.508 483.895 184.899V163.854C481.144 164.332 476.84 165.887 476.84 170.55Z" fill="#211F1D"/>
<path d="M474.568 109.45C464.763 108.015 449.458 107.895 438.219 117.102C437.979 117.341 437.74 117.58 437.501 117.82H428.653C419.565 117.82 412.152 124.276 412.152 132.168V140.299V158.952V181.67C413.826 181.67 415.141 180.236 415.141 178.562V146.636C415.141 146.636 415.739 136.473 424.946 136.473H445.871H446.11H469.905C479.71 136.473 480.905 145.321 481.025 146.517V178.442C481.025 180.236 482.34 181.551 484.014 181.551V158.832V140.179V132.885L484.134 120.45C484.253 114.95 480.188 110.167 474.568 109.45Z" fill="#211F1D"/>
<path d="M483.655 131.091H414.185V191.235H483.655V131.091Z" fill="#211F1D"/>
<path d="M467.751 410.051H428.532C401.15 410.051 378.91 386.017 378.91 356.483L391.345 249.228C395.65 220.651 422.075 202.237 448.978 202.237C476.121 202.237 502.785 221.009 506.731 250.065L517.612 356.483C517.373 386.017 495.133 410.051 467.751 410.051Z" fill="#F16A51"/>
<path d="M457.643 455.648L442.532 450.946L435.824 449.065V295.193C435.824 293.039 437.259 291.316 439.053 291.316H457.467C459.26 291.316 460.695 293.039 460.695 295.193L460.454 456.589L457.643 455.648Z" fill="#211F1D"/>
<path d="M463.686 304.589H431.761C428.293 304.589 425.543 301.839 425.543 298.372V284.262C425.543 280.795 428.293 278.045 431.761 278.045H463.686C467.154 278.045 469.904 280.795 469.904 284.262V298.372C470.024 301.839 467.154 304.589 463.686 304.589Z" fill="#211F1D"/>
<path d="M252.034 220.147C252.034 238.795 240.948 245.306 227.273 245.306C213.598 245.306 202.512 238.795 202.512 220.147C202.512 201.499 227.273 177.775 227.273 177.775C227.273 177.775 252.034 201.499 252.034 220.147Z" fill="#F16A51"/>
<path d="M226.627 226.847L237.181 207.54L226.667 224.399L226.781 217.382L234.054 203.412L226.811 215.524L227.016 202.903L234.805 191.782L227.048 200.919L227.176 177.776L226.406 207.1L218.518 195.028L226.31 209.575L225.573 223.67L225.551 223.296L216.421 210.541L225.523 224.618L225.431 226.381L225.414 226.407L225.422 226.552L223.55 245.362H226.051L226.351 243.843L235.43 229.799L226.373 242.454L226.627 226.847Z" fill="#3F3D56"/>
<path d="M243.09 285.762H213.57L205.941 242.642H249.06L243.09 285.762Z" fill="#2F2E41"/>
</g>
<defs>
<clipPath id="clip0_1495_2206">
<rect width="648" height="427" fill="white"/>
</clipPath>
</defs>
</svg>
